<svg xmlns="http://www.w3.org/2000/svg" xmlns:xlink="http://www.w3.org/1999/xlink" width="24" height="15" viewBox="0 0 24 15">
  <defs>
    <clipPath id="clip-path">
      <rect id="Rectangle_3" data-name="Rectangle 3" width="24" height="15" transform="translate(248 528)" fill="#fff"/>
    </clipPath>
  </defs>
  <g id="flag_usa" transform="translate(-248 -528)" clip-path="url(#clip-path)">
    <g id="united-states" transform="translate(248.553 524.053)">
      <path id="Path_1" data-name="Path 1" d="M21.18,3.947H1.715A1.715,1.715,0,0,0,0,5.662V17.233a1.715,1.715,0,0,0,1.715,1.715H21.18a1.715,1.715,0,0,0,1.715-1.715V5.662A1.715,1.715,0,0,0,21.18,3.947Z" fill="#f5f5f5"/>
      <g id="Group_3" data-name="Group 3">
        <path id="Path_2" data-name="Path 2" d="M.094,5.1H22.8a1.715,1.715,0,0,0-1.62-1.154H1.715A1.715,1.715,0,0,0,.094,5.1Z" fill="#ff4b55"/>
        <rect id="Rectangle_4" data-name="Rectangle 4" width="22.895" height="1.154" transform="translate(0 8.563)" fill="#ff4b55"/>
        <rect id="Rectangle_5" data-name="Rectangle 5" width="22.895" height="1.154" transform="translate(0 6.255)" fill="#ff4b55"/>
        <path id="Path_3" data-name="Path 3" d="M0,11.629a.4.4,0,0,0,.395.395h22.5V10.87H0Z" fill="#ff4b55"/>
        <rect id="Rectangle_6" data-name="Rectangle 6" width="22.895" height="1.154" transform="translate(0 15.486)" fill="#ff4b55"/>
        <path id="Path_4" data-name="Path 4" d="M22.8,17.793H.094a1.715,1.715,0,0,0,1.62,1.154H21.18A1.715,1.715,0,0,0,22.8,17.793Z" fill="#ff4b55"/>
        <rect id="Rectangle_7" data-name="Rectangle 7" width="22.895" height="1.154" transform="translate(0 13.178)" fill="#ff4b55"/>
      </g>
      <path id="Path_5" data-name="Path 5" d="M.395,12.024h9.868a.4.4,0,0,0,.395-.395V4.342a.4.4,0,0,0-.395-.395H1.715A1.715,1.715,0,0,0,0,5.662v5.967A.4.4,0,0,0,.395,12.024Z" fill="#41479b"/>
      <g id="Group_4" data-name="Group 4">
        <path id="Path_6" data-name="Path 6" d="M1.108,4.853l.087.262.276,0a.037.037,0,0,1,.022.067l-.222.164.083.263a.037.037,0,0,1-.057.041l-.225-.161-.225.161a.037.037,0,0,1-.057-.041l.083-.263L.652,5.185a.037.037,0,0,1,.022-.067l.276,0,.087-.262A.037.037,0,0,1,1.108,4.853Z" fill="#f5f5f5"/>
        <path id="Path_7" data-name="Path 7" d="M1.108,6.224l.087.262.276,0a.037.037,0,0,1,.022.067l-.222.164.083.263a.037.037,0,0,1-.057.041l-.225-.161-.225.161a.037.037,0,0,1-.057-.041L.875,6.72.652,6.555a.037.037,0,0,1,.022-.067l.276,0,.087-.262A.037.037,0,0,1,1.108,6.224Z" fill="#f5f5f5"/>
        <path id="Path_8" data-name="Path 8" d="M1.108,7.595l.087.262.276,0a.037.037,0,0,1,.022.067l-.222.164.083.263A.037.037,0,0,1,1.3,8.4l-.225-.161L.848,8.4a.037.037,0,0,1-.057-.041L.875,8.09.652,7.926a.037.037,0,0,1,.022-.067l.276,0,.087-.262A.037.037,0,0,1,1.108,7.595Z" fill="#f5f5f5"/>
        <path id="Path_9" data-name="Path 9" d="M1.108,8.966l.087.262.276,0a.037.037,0,0,1,.022.067l-.222.164.083.263a.037.037,0,0,1-.057.041l-.225-.161-.225.161a.037.037,0,0,1-.057-.041l.083-.263L.652,9.3A.037.037,0,0,1,.674,9.23l.276,0,.087-.262A.037.037,0,0,1,1.108,8.966Z" fill="#f5f5f5"/>
        <path id="Path_10" data-name="Path 10" d="M1.108,10.336,1.2,10.6l.276,0a.037.037,0,0,1,.022.067l-.222.164.083.263a.037.037,0,0,1-.057.041l-.225-.161-.225.161A.037.037,0,0,1,.791,11.1l.083-.263-.222-.164A.037.037,0,0,1,.674,10.6l.276,0,.087-.262A.037.037,0,0,1,1.108,10.336Z" fill="#f5f5f5"/>
        <path id="Path_11" data-name="Path 11" d="M2.172,5.525l.087.262.276,0a.037.037,0,0,1,.022.067l-.222.164.083.263a.037.037,0,0,1-.057.041l-.225-.161-.225.161a.037.037,0,0,1-.057-.041l.083-.263-.222-.164a.037.037,0,0,1,.022-.067l.276,0L2.1,5.525A.037.037,0,0,1,2.172,5.525Z" fill="#f5f5f5"/>
        <path id="Path_12" data-name="Path 12" d="M2.172,6.9l.087.262.276,0a.037.037,0,0,1,.022.067l-.222.164.083.263a.037.037,0,0,1-.057.041l-.225-.161L1.912,7.7a.037.037,0,0,1-.057-.041l.083-.263-.222-.164a.037.037,0,0,1,.022-.067l.276,0L2.1,6.9A.037.037,0,0,1,2.172,6.9Z" fill="#f5f5f5"/>
        <path id="Path_13" data-name="Path 13" d="M2.172,8.267l.087.262.276,0a.037.037,0,0,1,.022.067l-.222.164.083.263a.037.037,0,0,1-.057.041l-.225-.161-.225.161a.037.037,0,0,1-.057-.041l.083-.263L1.716,8.6a.037.037,0,0,1,.022-.067l.276,0L2.1,8.267A.037.037,0,0,1,2.172,8.267Z" fill="#f5f5f5"/>
        <path id="Path_14" data-name="Path 14" d="M2.172,9.638,2.26,9.9l.276,0a.037.037,0,0,1,.022.067l-.222.164.083.263a.037.037,0,0,1-.057.041l-.225-.161-.225.161a.037.037,0,0,1-.057-.041l.083-.263-.222-.164A.037.037,0,0,1,1.738,9.9l.276,0L2.1,9.638A.037.037,0,0,1,2.172,9.638Z" fill="#f5f5f5"/>
        <path id="Path_15" data-name="Path 15" d="M3.236,4.853l.087.262.276,0a.037.037,0,0,1,.022.067L3.4,5.349l.083.263a.037.037,0,0,1-.057.041L3.2,5.493l-.225.161a.037.037,0,0,1-.057-.041L3,5.349,2.78,5.185A.037.037,0,0,1,2.8,5.117l.276,0,.087-.262A.037.037,0,0,1,3.236,4.853Z" fill="#f5f5f5"/>
        <path id="Path_16" data-name="Path 16" d="M3.236,6.224l.087.262.276,0a.037.037,0,0,1,.022.067L3.4,6.719l.083.263a.037.037,0,0,1-.057.041L3.2,6.864l-.225.161a.037.037,0,0,1-.057-.041L3,6.719,2.78,6.555A.037.037,0,0,1,2.8,6.488l.276,0,.087-.262A.037.037,0,0,1,3.236,6.224Z" fill="#f5f5f5"/>
        <path id="Path_17" data-name="Path 17" d="M3.236,7.595l.087.262.276,0a.037.037,0,0,1,.022.067L3.4,8.09l.083.263a.037.037,0,0,1-.057.041L3.2,8.234,2.976,8.4a.037.037,0,0,1-.057-.041L3,8.09,2.78,7.926A.037.037,0,0,1,2.8,7.859l.276,0,.087-.262A.037.037,0,0,1,3.236,7.595Z" fill="#f5f5f5"/>
        <path id="Path_18" data-name="Path 18" d="M3.236,8.966l.087.262.276,0a.037.037,0,0,1,.022.067L3.4,9.461l.083.263a.037.037,0,0,1-.057.041L3.2,9.605l-.225.161a.037.037,0,0,1-.057-.041L3,9.461,2.78,9.3A.037.037,0,0,1,2.8,9.23l.276,0,.087-.262A.037.037,0,0,1,3.236,8.966Z" fill="#f5f5f5"/>
        <path id="Path_19" data-name="Path 19" d="M3.236,10.336l.087.262.276,0a.037.037,0,0,1,.022.067l-.222.164.083.263a.037.037,0,0,1-.057.041L3.2,10.976l-.225.161a.037.037,0,0,1-.057-.041L3,10.832l-.222-.164A.037.037,0,0,1,2.8,10.6l.276,0,.087-.262A.037.037,0,0,1,3.236,10.336Z" fill="#f5f5f5"/>
        <path id="Path_20" data-name="Path 20" d="M4.3,5.525l.087.262.276,0a.037.037,0,0,1,.022.067l-.222.164.083.263a.037.037,0,0,1-.057.041l-.225-.161-.225.161a.037.037,0,0,1-.057-.041l.083-.263-.222-.164a.037.037,0,0,1,.022-.067l.276,0,.087-.262A.037.037,0,0,1,4.3,5.525Z" fill="#f5f5f5"/>
        <path id="Path_21" data-name="Path 21" d="M4.3,6.9l.087.262.276,0a.037.037,0,0,1,.022.067l-.222.164.083.263A.037.037,0,0,1,4.49,7.7l-.225-.161L4.04,7.7a.037.037,0,0,1-.057-.041l.083-.263-.222-.164a.037.037,0,0,1,.022-.067l.276,0L4.23,6.9A.037.037,0,0,1,4.3,6.9Z" fill="#f5f5f5"/>
        <path id="Path_22" data-name="Path 22" d="M4.3,8.267l.087.262.276,0a.037.037,0,0,1,.022.067l-.222.164.083.263a.037.037,0,0,1-.057.041l-.225-.161-.225.161a.037.037,0,0,1-.057-.041l.083-.263L3.844,8.6a.037.037,0,0,1,.022-.067l.276,0,.087-.262A.037.037,0,0,1,4.3,8.267Z" fill="#f5f5f5"/>
        <path id="Path_23" data-name="Path 23" d="M4.3,9.638l.087.262.276,0a.037.037,0,0,1,.022.067l-.222.164.083.263a.037.037,0,0,1-.057.041l-.225-.161-.225.161a.037.037,0,0,1-.057-.041l.083-.263-.222-.164A.037.037,0,0,1,3.866,9.9l.276,0,.087-.262A.037.037,0,0,1,4.3,9.638Z" fill="#f5f5f5"/>
        <path id="Path_24" data-name="Path 24" d="M5.364,4.853l.087.262.276,0a.037.037,0,0,1,.022.067l-.222.164.083.263a.037.037,0,0,1-.057.041l-.225-.161L5.1,5.654a.037.037,0,0,1-.057-.041l.083-.263-.222-.164a.037.037,0,0,1,.022-.067l.276,0,.087-.262A.037.037,0,0,1,5.364,4.853Z" fill="#f5f5f5"/>
        <path id="Path_25" data-name="Path 25" d="M5.364,6.224l.087.262.276,0a.037.037,0,0,1,.022.067l-.222.164.083.263a.037.037,0,0,1-.057.041l-.225-.161L5.1,7.024a.037.037,0,0,1-.057-.041l.083-.263-.222-.164a.037.037,0,0,1,.022-.067l.276,0,.087-.262A.037.037,0,0,1,5.364,6.224Z" fill="#f5f5f5"/>
        <path id="Path_26" data-name="Path 26" d="M5.364,7.595l.087.262.276,0a.037.037,0,0,1,.022.067l-.222.164.083.263a.037.037,0,0,1-.057.041l-.225-.161L5.1,8.4a.037.037,0,0,1-.057-.041L5.13,8.09l-.222-.164a.037.037,0,0,1,.022-.067l.276,0,.087-.262A.037.037,0,0,1,5.364,7.595Z" fill="#f5f5f5"/>
        <path id="Path_27" data-name="Path 27" d="M5.364,8.966l.087.262.276,0A.037.037,0,0,1,5.75,9.3l-.222.164.083.263a.037.037,0,0,1-.057.041l-.225-.161L5.1,9.766a.037.037,0,0,1-.057-.041l.083-.263L4.908,9.3A.037.037,0,0,1,4.93,9.23l.276,0,.087-.262A.037.037,0,0,1,5.364,8.966Z" fill="#f5f5f5"/>
        <path id="Path_28" data-name="Path 28" d="M5.364,10.336l.087.262.276,0a.037.037,0,0,1,.022.067l-.222.164.083.263a.037.037,0,0,1-.057.041l-.225-.161-.225.161a.037.037,0,0,1-.057-.041l.083-.263-.222-.164A.037.037,0,0,1,4.93,10.6l.276,0,.087-.262A.037.037,0,0,1,5.364,10.336Z" fill="#f5f5f5"/>
        <path id="Path_29" data-name="Path 29" d="M6.428,5.525l.087.262.276,0a.037.037,0,0,1,.022.067l-.222.164.083.263a.037.037,0,0,1-.057.041l-.225-.161-.225.161a.037.037,0,0,1-.057-.041l.083-.263-.222-.164a.037.037,0,0,1,.022-.067l.276,0,.087-.262A.037.037,0,0,1,6.428,5.525Z" fill="#f5f5f5"/>
        <path id="Path_30" data-name="Path 30" d="M6.428,6.9l.087.262.276,0a.037.037,0,0,1,.022.067l-.222.164.083.263a.037.037,0,0,1-.057.041l-.225-.161L6.168,7.7a.037.037,0,0,1-.057-.041l.083-.263-.222-.164a.037.037,0,0,1,.022-.067l.276,0L6.358,6.9A.037.037,0,0,1,6.428,6.9Z" fill="#f5f5f5"/>
        <path id="Path_31" data-name="Path 31" d="M6.428,8.267l.087.262.276,0a.037.037,0,0,1,.022.067l-.222.164.083.263a.037.037,0,0,1-.057.041l-.225-.161-.225.161a.037.037,0,0,1-.057-.041l.083-.263L5.972,8.6a.037.037,0,0,1,.022-.067l.276,0,.087-.262A.037.037,0,0,1,6.428,8.267Z" fill="#f5f5f5"/>
        <path id="Path_32" data-name="Path 32" d="M6.428,9.638l.087.262.276,0a.037.037,0,0,1,.022.067l-.222.164.083.263a.037.037,0,0,1-.057.041l-.225-.161-.225.161a.037.037,0,0,1-.057-.041l.083-.263-.222-.164A.037.037,0,0,1,5.994,9.9l.276,0,.087-.262A.037.037,0,0,1,6.428,9.638Z" fill="#f5f5f5"/>
        <path id="Path_33" data-name="Path 33" d="M7.492,4.853l.087.262.276,0a.037.037,0,0,1,.022.067l-.222.164.083.263a.037.037,0,0,1-.057.041l-.225-.161-.225.161a.037.037,0,0,1-.057-.041l.083-.263-.222-.164a.037.037,0,0,1,.022-.067l.276,0,.087-.262A.037.037,0,0,1,7.492,4.853Z" fill="#f5f5f5"/>
        <path id="Path_34" data-name="Path 34" d="M7.492,6.224l.087.262.276,0a.037.037,0,0,1,.022.067l-.222.164.083.263a.037.037,0,0,1-.057.041l-.225-.161-.225.161a.037.037,0,0,1-.057-.041l.083-.263-.222-.164a.037.037,0,0,1,.022-.067l.276,0,.087-.262A.037.037,0,0,1,7.492,6.224Z" fill="#f5f5f5"/>
        <path id="Path_35" data-name="Path 35" d="M7.492,7.595l.087.262.276,0a.037.037,0,0,1,.022.067l-.222.164.083.263a.037.037,0,0,1-.057.041l-.225-.161L7.232,8.4a.037.037,0,0,1-.057-.041l.083-.263-.222-.164a.037.037,0,0,1,.022-.067l.276,0,.087-.262A.037.037,0,0,1,7.492,7.595Z" fill="#f5f5f5"/>
        <path id="Path_36" data-name="Path 36" d="M7.492,8.966l.087.262.276,0a.037.037,0,0,1,.022.067l-.222.164.083.263a.037.037,0,0,1-.057.041l-.225-.161-.225.161a.037.037,0,0,1-.057-.041l.083-.263L7.036,9.3a.037.037,0,0,1,.022-.067l.276,0,.087-.262A.037.037,0,0,1,7.492,8.966Z" fill="#f5f5f5"/>
        <path id="Path_37" data-name="Path 37" d="M7.492,10.336l.087.262.276,0a.037.037,0,0,1,.022.067l-.222.164.083.263a.037.037,0,0,1-.057.041l-.225-.161-.225.161a.037.037,0,0,1-.057-.041l.083-.263-.222-.164a.037.037,0,0,1,.022-.067l.276,0,.087-.262A.037.037,0,0,1,7.492,10.336Z" fill="#f5f5f5"/>
        <path id="Path_38" data-name="Path 38" d="M8.556,5.525l.087.262.276,0a.037.037,0,0,1,.022.067l-.222.164.083.263a.037.037,0,0,1-.057.041l-.225-.161L8.3,6.326a.037.037,0,0,1-.057-.041l.083-.263L8.1,5.857a.037.037,0,0,1,.022-.067l.276,0,.087-.262A.037.037,0,0,1,8.556,5.525Z" fill="#f5f5f5"/>
        <path id="Path_39" data-name="Path 39" d="M8.556,6.9l.087.262.276,0a.037.037,0,0,1,.022.067l-.222.164.083.263a.037.037,0,0,1-.057.041l-.225-.161L8.3,7.7a.037.037,0,0,1-.057-.041l.083-.263L8.1,7.227a.037.037,0,0,1,.022-.067l.276,0L8.485,6.9A.037.037,0,0,1,8.556,6.9Z" fill="#f5f5f5"/>
        <path id="Path_40" data-name="Path 40" d="M8.556,8.267l.087.262.276,0a.037.037,0,0,1,.022.067l-.222.164.083.263a.037.037,0,0,1-.057.041l-.225-.161L8.3,9.067a.037.037,0,0,1-.057-.041l.083-.263L8.1,8.6a.037.037,0,0,1,.022-.067l.276,0,.087-.262A.037.037,0,0,1,8.556,8.267Z" fill="#f5f5f5"/>
        <path id="Path_41" data-name="Path 41" d="M8.556,9.638l.087.262.276,0a.037.037,0,0,1,.022.067l-.222.164L8.8,10.4a.037.037,0,0,1-.057.041l-.225-.161-.225.161a.037.037,0,0,1-.057-.041l.083-.263L8.1,9.969A.037.037,0,0,1,8.122,9.9l.276,0,.087-.262A.037.037,0,0,1,8.556,9.638Z" fill="#f5f5f5"/>
        <path id="Path_42" data-name="Path 42" d="M9.62,4.853l.087.262.276,0a.037.037,0,0,1,.022.067l-.222.164.083.263a.037.037,0,0,1-.057.041l-.225-.161-.225.161A.037.037,0,0,1,9.3,5.612l.083-.263-.222-.164a.037.037,0,0,1,.022-.067l.276,0,.087-.262A.037.037,0,0,1,9.62,4.853Z" fill="#f5f5f5"/>
        <path id="Path_43" data-name="Path 43" d="M9.62,6.224l.087.262.276,0a.037.037,0,0,1,.022.067l-.222.164.083.263a.037.037,0,0,1-.057.041l-.225-.161-.225.161A.037.037,0,0,1,9.3,6.983l.083-.263-.222-.164a.037.037,0,0,1,.022-.067l.276,0,.087-.262A.037.037,0,0,1,9.62,6.224Z" fill="#f5f5f5"/>
        <path id="Path_44" data-name="Path 44" d="M9.62,7.595l.087.262.276,0a.037.037,0,0,1,.022.067l-.222.164.083.263a.037.037,0,0,1-.057.041l-.225-.161L9.36,8.4A.037.037,0,0,1,9.3,8.354l.083-.263-.222-.164a.037.037,0,0,1,.022-.067l.276,0,.087-.262A.037.037,0,0,1,9.62,7.595Z" fill="#f5f5f5"/>
        <path id="Path_45" data-name="Path 45" d="M9.62,8.966l.087.262.276,0a.037.037,0,0,1,.022.067l-.222.164.083.263a.037.037,0,0,1-.057.041l-.225-.161-.225.161A.037.037,0,0,1,9.3,9.724l.083-.263L9.164,9.3a.037.037,0,0,1,.022-.067l.276,0,.087-.262A.037.037,0,0,1,9.62,8.966Z" fill="#f5f5f5"/>
        <path id="Path_46" data-name="Path 46" d="M9.62,10.336l.087.262.276,0a.037.037,0,0,1,.022.067l-.222.164.083.263a.037.037,0,0,1-.057.041l-.225-.161-.225.161A.037.037,0,0,1,9.3,11.1l.083-.263-.222-.164a.037.037,0,0,1,.022-.067l.276,0,.087-.262A.037.037,0,0,1,9.62,10.336Z" fill="#f5f5f5"/>
      </g>
    </g>
  </g>
</svg>
